<svg enable-background="new 0 0 110 110" height="512" viewBox="0 0 110 110" width="512" xmlns="http://www.w3.org/2000/svg">
  <g fill="#fff"><path d="m74.5937653 20.2487774c-1.7201004-3.915369-5.9001007-6.5196056-9.9598083-8.1915846-6.1707649-2.5501289-13.099308-2.5501289-19.2700691 0-4.0597076 1.671979-8.2397118 4.2762156-9.9538307 8.1915846-3.7890549 8.642664-1.8945084 16.2207699 0 24.8634357 1.8945427 8.642662 4.8536072 8.1675377 4.8536072 8.1675377s.2345734 8.6426659 1.1848526 10.8920403c.9442635 2.2493744 1.77425.8299866 5.0881462 4.7333145 3.3139305 3.9093475 8.4622383 2.2493744 8.4622383 2.2493744s5.1483116 1.6599731 8.4622383-2.2493744c3.3199501-3.9033279 4.1439171-2.4839401 5.0942039-4.7333145.9442596-2.2493744 1.1848145-10.8920403 1.1848145-10.8920403s2.9590683.4751244 4.8536072-8.1675377c1.8945464-8.6426658 3.7830351-16.2207718-.0000001-24.8634357zm-22.4757386 24.0936108c1.0224533-5.17239 2.8808746-3.8071136 2.8808746-3.8071136s1.8644791-1.3652763 2.8809128 3.8071136c1.0164337 5.1723557-.2165451 8.1194191-2.8809128 6.5316124-2.6643676 1.5878067-3.8973083-1.3592568-2.8808746-6.5316124zm-12.8406906-5.9662934c-.5593719-4.0957909 5.1362686-5.6174088 5.1362686-5.6174088s4.7393341-1.0464973 6.5857544 3.0492935-2.2493706 6.8263092-2.2493706 6.8263092-2.0028.9623222-4.8175278 1.6058311c-2.8087424.6435434-4.0957908-1.7682303-4.6551246-5.864025zm6.0805321 17.2973709c-2.7606201-1.7622108-2.1050339-4.4867058-1.9246101-5.0640984.0060196.1683807.1924629.5352859 1.3231697 1.2329407 1.6599769 1.0224495.6014404 3.8311577.6014404 3.8311577zm16.6538238 4.4265747c-1.4434662 1.2510033-6.0745468 1.0465355-7.3315353.9683456-1.257019.0781898-5.8880997.2826576-7.3315315-.9683456-1.6779976-1.4614906-1.0224533-4.1198349-1.0224533-4.1198349 1.5035973.7638359 4.8716354.5232468 6.9405861.2766724.7277527-.0842094 1.461525-.0962486 2.1952629-.0300636 2.0148048.1744041 6.2128677.4450569 7.5661011-.2466087-.0000001-.0000001.655548 2.6583442-1.01643 4.1198348zm1.990757-4.4265747s-1.0645561-2.8087082.5954208-3.8311577c1.1367264-.6976547 1.3231735-1.0645599 1.3291931-1.2329407.18042.5773926.8359681 3.3018876-1.9246139 5.0640984zm6.0805359-17.2973709c-.5653534 4.0957947-1.8464203 6.5075684-4.6611481 5.8640251-2.8087082-.6435089-4.8175278-1.6058311-4.8175278-1.6058311s-4.0957909-2.7305145-2.2493706-6.8263092c1.8524399-4.0957909 6.5857506-3.0492935 6.5857506-3.0492935s5.7016221 1.5216179 5.1422959 5.6174087z"/><path d="m65.927063 50.603344c-.0180664-.0481224-.0301056-.0842094-.0301056-.0962143.0120392.0120048.0301056.0421066.0301056.0962143z"/><path d="m43.4633217 50.5071297c0 .0120049-.0120049.0480919-.0300636.0962143 0-.0541077.0180587-.0842095.0300636-.0962143z"/><path d="m42.7945366 72.8112793 7.3249664 3.5390015 13.3199005 6.4354248 7.3249626 3.5390091c1.7047272.8236237 3.6564789 1.1069183 5.483902.6119232 1.5918503-.4311829 3.4850006.1997299 4.5517349 2.2946625.5751724 2.8476257-1.2188339 4.719101-3.2540894 4.9126587 1.1132584 1.7147751.7620468 4.2837677-1.8265915 5.602623-2.3041687.466217-3.9750443-.6250076-4.6264343-2.1402817-.7476425-1.7390823-2.1825562-3.0916977-3.8870087-3.9151993l-7.3253975-3.5392151-13.3199005-6.4354172-7.325428-3.5392303c-1.7044258-.8234863-3.6558838-1.1069641-5.4829636-.6118393-1.5919647.4314117-3.4852905-.1993866-4.5520535-2.2942505-.5756187-2.847641 1.2186985-4.7194138 3.2539654-4.913002-1.1132717-1.7147369-.7621021-4.2833099 1.8262138-5.6025238 2.3041725-.466301 3.9750595.624733 4.6265984 2.1397934.7479517 1.739273 2.182934 3.0922546 3.887623 3.915863z"/><path d="m42.7945366 93.6908875 7.3249664-3.5390091 13.3199005-6.4354248 7.3249626-3.5390015c1.7047272-.8236313 3.6564789-1.106926 5.483902-.6119308 1.5918503.4311829 3.4850006-.1997299 4.5517349-2.2946548.5751724-2.8476334-1.2188339-4.7191086-3.2540894-4.9126587 1.1132584-1.7147751.7620468-4.2837753-1.8265915-5.6026306-2.3041687-.466217-3.9750443.6250076-4.6264343 2.1402817-.7476425 1.7390823-2.1825562 3.0917053-3.8870087 3.9151993l-7.3253975 3.5392151-13.3199005 6.4354248-7.325428 3.5392303c-1.7044258.8234787-3.6558838 1.1069565-5.4829636.6118393-1.5919647-.4314117-3.4852905.199379-4.5520535 2.2942429-.5756187 2.847641 1.2186985 4.7194138 3.2539654 4.913002-1.1132717 1.7147446-.7621021 4.2833099 1.8262138 5.6025238 2.3041725.466301 3.9750595-.6247253 4.6265984-2.1397858.7479517-1.7392732 2.182934-3.0922548 3.887623-3.9158631z"/></g>
</svg>