<svg xmlns="http://www.w3.org/2000/svg" viewBox="0 0 110 110">
  <g fill="#fff">
    <path d="M75 20c-2-4-6-6-10-8-7-2-13-2-20 0-4 2-8 4-10 8-3 9-1 16 0 25 2 9 5 8 5 8l1 11 6 5c3 4 8 2 8 2s5 2 8-2l6-5 1-11s3 1 5-8c1-9 3-16 0-25zM52 44c1-5 3-3 3-3s2-2 3 3c1 6 0 8-3 7-3 1-4-1-3-7zm-13-6c0-4 5-5 5-5s5-1 7 3-2 7-2 7l-5 1c-3 1-4-2-5-6zm6 18c-2-2-2-5-2-5l2 1v4zm17 4l-7 1-8-1-1-4h17s1 3-1 4zm2-4s-1-3 1-4l1-1s1 3-2 5zm6-18c0 4-2 7-5 6l-4-1s-4-3-3-7c2-4 7-3 7-3s6 1 5 5zM66 51zM43 51zM43 73l7 3 13 7 8 3 5 1c2 0 4 0 5 2 0 3-1 5-3 5 1 2 0 4-2 6-3 0-4-1-5-2l-4-4-7-4-13-6-8-4h-5c-2 0-4-1-5-3 0-3 1-4 3-5-1-1 0-4 2-5 3-1 4 0 5 2l4 4z"/>
    <path d="M43 94l7-4 13-6 8-4h5c2 0 4-1 5-3 0-3-1-4-3-5 1-1 0-4-2-5-3-1-4 0-5 2l-4 4-7 3-13 7-8 3-5 1c-2 0-4 0-5 2 0 3 1 5 3 5-1 2 0 4 2 6 3 0 4-1 5-2l4-4z"/>
  </g>
</svg>